<svg width="77" height="24" viewBox="0 0 77 24" fill="none" xmlns="http://www.w3.org/2000/svg">
<path d="M21.76 14.936C21.728 15.208 21.712 15.472 21.712 15.728C21.712 15.984 21.712 16.224 21.712 16.448C21.712 17.136 21.768 17.752 21.88 18.296C21.992 18.824 22.152 19.304 22.36 19.736C22.568 20.168 22.816 20.544 23.104 20.864C23.392 21.2 23.712 21.496 24.064 21.752C23.6 21.976 23.24 22.112 22.984 22.16C22.744 22.208 22.496 22.232 22.24 22.232C21.824 22.2 21.408 22.088 20.992 21.896C20.592 21.72 20.232 21.432 19.912 21.032C19.592 20.632 19.336 20.112 19.144 19.472C18.952 18.816 18.856 18.008 18.856 17.048C18.856 16.808 18.864 16.544 18.88 16.256C18.896 15.952 18.92 15.664 18.952 15.392C18.952 15.328 18.952 15.264 18.952 15.2C18.952 15.136 18.96 15.072 18.976 15.008C18.896 15.024 18.816 15.04 18.736 15.056C18.656 15.056 18.576 15.056 18.496 15.056C17.76 15.104 17.04 15.16 16.336 15.224C15.632 15.272 14.904 15.312 14.152 15.344C13.176 16.464 12.184 17.52 11.176 18.512C10.168 19.504 9.16 20.368 8.152 21.104C7.16 21.856 6.168 22.448 5.176 22.88C4.2 23.328 3.248 23.552 2.32 23.552C2.096 23.552 1.848 23.464 1.576 23.288C1.304 23.128 1.072 22.912 0.88 22.64C0.688 22.368 0.568 22.056 0.52 21.704C0.472 21.368 0.568 21.032 0.808 20.696C1.128 20.92 1.456 21.112 1.792 21.272C2.128 21.432 2.424 21.512 2.68 21.512C3.336 21.512 4.024 21.352 4.744 21.032C5.48 20.728 6.232 20.304 7 19.76C7.784 19.2 8.568 18.552 9.352 17.816C10.152 17.08 10.952 16.28 11.752 15.416C11.192 15.4 10.68 15.36 10.216 15.296C9.752 15.232 9.36 15.12 9.04 14.96C8.72 14.8 8.472 14.592 8.296 14.336C8.136 14.08 8.08 13.76 8.128 13.376C8.8 13.552 9.448 13.672 10.072 13.736C10.696 13.784 11.312 13.808 11.92 13.808C12.144 13.808 12.344 13.808 12.52 13.808C12.712 13.808 12.928 13.8 13.168 13.784C14.08 12.744 14.96 11.672 15.808 10.568C16.656 9.464 17.448 8.4 18.184 7.376C18.936 6.336 19.608 5.368 20.2 4.472C20.808 3.576 21.32 2.816 21.736 2.192L22.24 1.448L22.384 0.92C22.464 0.791999 22.624 0.735999 22.864 0.751999C23.104 0.751999 23.344 0.799999 23.584 0.895998C23.84 0.975999 24.064 1.088 24.256 1.232C24.464 1.36 24.568 1.496 24.568 1.64C23.8 4.312 23.192 6.64 22.744 8.624C22.312 10.592 22.008 12.312 21.832 13.784C22.024 13.896 22.176 14.048 22.288 14.24C22.4 14.432 22.496 14.664 22.576 14.936H21.76ZM19.168 13.472C19.344 12.272 19.552 11.168 19.792 10.16C20.032 9.136 20.288 8.16 20.56 7.232C19.84 8.24 19.072 9.28 18.256 10.352C17.456 11.408 16.568 12.528 15.592 13.712L16.528 13.616C17.072 13.584 17.544 13.56 17.944 13.544C18.344 13.512 18.752 13.488 19.168 13.472ZM30.1548 18.32C29.9308 18.336 29.6908 18.328 29.4348 18.296C29.1948 18.248 28.9388 18.072 28.6668 17.768L28.5468 18.08C28.4828 18.192 28.4268 18.344 28.3788 18.536C28.2988 18.712 28.1788 18.904 28.0188 19.112C27.8748 19.32 27.6908 19.52 27.4668 19.712C27.2588 19.904 27.0188 20.064 26.7467 20.192C26.4908 20.32 26.2108 20.376 25.9068 20.36C24.8988 20.312 24.1788 20.008 23.7468 19.448C23.3148 18.888 23.0987 18.128 23.0987 17.168C23.0987 16.064 23.3708 14.712 23.9148 13.112C24.2508 12.152 24.5868 11.28 24.9228 10.496C25.2588 9.696 25.6028 8.928 25.9548 8.192C26.3068 7.44 26.6828 6.696 27.0828 5.96C27.4828 5.208 27.9228 4.416 28.4028 3.584C28.5308 3.408 28.7468 3.28 29.0508 3.2C29.3548 3.104 29.6668 3.056 29.9868 3.056C30.3868 3.056 30.7068 3.128 30.9468 3.272C31.1868 3.4 31.2268 3.616 31.0668 3.92C30.5388 4.72 30.0588 5.488 29.6268 6.224C29.2108 6.944 28.8188 7.68 28.4508 8.432C28.0828 9.168 27.7308 9.936 27.3948 10.736C27.0748 11.52 26.7548 12.384 26.4348 13.328C26.3708 13.504 26.2828 13.744 26.1708 14.048C26.0748 14.352 25.9708 14.688 25.8588 15.056C25.7628 15.424 25.6748 15.808 25.5948 16.208C25.5308 16.592 25.4988 16.952 25.4988 17.288C25.4988 17.64 25.5548 17.928 25.6668 18.152C25.7788 18.376 25.9708 18.504 26.2428 18.536C26.3228 18.536 26.4108 18.448 26.5068 18.272C26.6028 18.08 26.6988 17.848 26.7948 17.576C26.9068 17.288 27.0108 16.992 27.1068 16.688C27.2028 16.368 27.2908 16.088 27.3708 15.848L27.4908 15.464C27.4588 15.144 27.4268 14.824 27.3948 14.504C27.3628 14.184 27.3468 13.856 27.3468 13.52C27.3468 13.072 27.3708 12.64 27.4188 12.224C27.4508 12.112 27.6268 11.976 27.9468 11.816C28.2668 11.64 28.6188 11.488 29.0028 11.36C29.3868 11.216 29.7388 11.12 30.0588 11.072C30.3788 11.008 30.5628 11.032 30.6108 11.144C30.5788 11.288 30.5148 11.56 30.4188 11.96C30.3388 12.344 30.2588 12.776 30.1788 13.256C30.0988 13.72 30.0268 14.184 29.9628 14.648C29.9148 15.112 29.9068 15.488 29.9388 15.776C29.9548 15.968 30.0108 16.128 30.1068 16.256C30.2028 16.368 30.3228 16.424 30.4668 16.424C30.5948 16.424 30.7308 16.376 30.8748 16.28C31.0348 16.168 31.2028 15.976 31.3788 15.704L31.3308 15.848L31.4508 15.584V15.608C31.5148 15.496 31.6428 15.432 31.8348 15.416C32.0268 15.384 32.2108 15.392 32.3868 15.44C32.5788 15.488 32.7148 15.576 32.7948 15.704C32.8908 15.816 32.8828 15.96 32.7708 16.136L32.7948 16.112C32.6348 16.368 32.4508 16.624 32.2428 16.88C32.0348 17.136 31.8108 17.368 31.5708 17.576C31.3308 17.784 31.0908 17.96 30.8508 18.104C30.6108 18.232 30.3788 18.304 30.1548 18.32ZM31.4508 15.56V15.584V15.56ZM32.248 13.832C32.264 13.8 32.312 13.72 32.392 13.592C32.472 13.464 32.592 13.328 32.752 13.184C32.912 13.04 33.104 12.912 33.328 12.8C33.552 12.688 33.816 12.616 34.12 12.584C34.36 12.104 34.672 11.704 35.056 11.384C35.44 11.048 35.864 10.864 36.328 10.832C36.968 10.832 37.456 11.056 37.792 11.504C38.128 11.952 38.296 12.544 38.296 13.28C38.296 14.048 38.12 14.88 37.768 15.776C37.64 16.08 37.504 16.376 37.36 16.664C37.216 16.936 37.056 17.2 36.88 17.456H36.904C37.448 17.44 38.144 16.856 38.992 15.704V15.728C38.992 15.712 38.992 15.704 38.992 15.704C39.008 15.704 39.016 15.688 39.016 15.656L39.04 15.632L39.016 15.656C39.032 15.656 39.04 15.648 39.04 15.632C39.072 15.568 39.096 15.528 39.112 15.512C39.128 15.496 39.136 15.48 39.136 15.464C39.232 15.32 39.368 15.208 39.544 15.128C39.736 15.048 39.912 15.032 40.072 15.08C40.232 15.112 40.344 15.216 40.408 15.392C40.488 15.568 40.464 15.84 40.336 16.208C40.128 16.576 39.88 16.928 39.592 17.264C39.304 17.6 38.992 17.904 38.656 18.176C38.336 18.432 38 18.648 37.648 18.824C37.296 18.984 36.952 19.072 36.616 19.088C36.424 19.12 36.24 19.128 36.064 19.112C35.888 19.08 35.736 19.048 35.608 19.016C35.128 19.464 34.64 19.816 34.144 20.072C33.664 20.344 33.192 20.48 32.728 20.48C32.104 20.48 31.624 20.264 31.288 19.832C30.968 19.384 30.808 18.8 30.808 18.08C30.808 17.28 31 16.424 31.384 15.512V15.56C31.48 15.224 31.608 14.92 31.768 14.648C31.928 14.36 32.096 14.08 32.272 13.808L32.248 13.832ZM35.968 15.488C36.176 14.992 36.32 14.576 36.4 14.24C36.48 13.888 36.52 13.6 36.52 13.376C36.52 13.12 36.496 12.952 36.448 12.872C36.4 12.776 36.352 12.72 36.304 12.704C36.208 12.752 36.112 12.864 36.016 13.04C35.92 13.2 35.832 13.408 35.752 13.664C35.688 13.904 35.632 14.176 35.584 14.48C35.552 14.768 35.536 15.064 35.536 15.368C35.536 15.672 35.56 15.968 35.608 16.256C35.704 16.096 35.824 15.84 35.968 15.488ZM33.304 18.584C33.544 18.584 33.856 18.408 34.24 18.056C34.032 17.784 33.872 17.496 33.76 17.192C33.648 16.872 33.568 16.528 33.52 16.16C33.392 16.528 33.288 16.88 33.208 17.216C33.128 17.536 33.088 17.808 33.088 18.032C33.088 18.4 33.16 18.584 33.304 18.584ZM39.016 15.68L38.992 15.704L39.016 15.68ZM45.3389 11.864C45.4349 11.72 45.6349 11.624 45.9389 11.576C46.2429 11.512 46.5469 11.496 46.8509 11.528C47.1709 11.544 47.4349 11.6 47.6429 11.696C47.8669 11.776 47.9549 11.896 47.9069 12.056C47.8269 12.296 47.7149 12.576 47.5709 12.896C47.4429 13.216 47.3069 13.544 47.1629 13.88C46.9389 14.392 46.7229 14.888 46.5149 15.368C46.3229 15.848 46.1869 16.24 46.1069 16.544C45.9469 17.024 45.8189 17.456 45.7229 17.84C45.6269 18.224 45.6029 18.456 45.6509 18.536C45.7469 18.52 45.9149 18.416 46.1549 18.224C46.3949 18.032 46.6749 17.768 46.9949 17.432C47.2349 17.224 47.4509 16.968 47.6429 16.664C47.8509 16.36 48.0349 16.072 48.1949 15.8C48.3549 15.608 48.5389 15.488 48.7469 15.44C48.9709 15.376 49.1629 15.384 49.3229 15.464C49.4989 15.528 49.6109 15.656 49.6589 15.848C49.7069 16.024 49.6509 16.24 49.4909 16.496C49.3309 16.72 49.1389 16.992 48.9149 17.312C48.7069 17.632 48.4909 17.928 48.2669 18.2C47.6749 18.856 47.1069 19.384 46.5629 19.784C46.0349 20.168 45.5629 20.368 45.1469 20.384C44.6029 20.416 44.1869 20.32 43.8989 20.096C43.6269 19.888 43.4349 19.6 43.3229 19.232L43.1789 19.448V19.184C42.7949 19.568 42.3949 19.864 41.9789 20.072C41.5789 20.28 41.1629 20.384 40.7309 20.384C40.2829 20.384 39.9149 20.328 39.6269 20.216C39.3389 20.12 39.1069 19.976 38.9309 19.784C38.7549 19.592 38.6269 19.368 38.5469 19.112C38.4829 18.84 38.4509 18.544 38.4509 18.224C38.4509 17.888 38.4829 17.552 38.5469 17.216C38.6109 16.864 38.6829 16.52 38.7629 16.184C38.8269 15.912 38.9149 15.624 39.0269 15.32C39.1549 15 39.2749 14.696 39.3869 14.408C39.5149 14.12 39.6349 13.856 39.7469 13.616C39.8749 13.36 39.9789 13.152 40.0589 12.992C40.1549 12.832 40.3469 12.72 40.6349 12.656C40.9389 12.592 41.2429 12.576 41.5469 12.608C41.8669 12.624 42.1389 12.68 42.3629 12.776C42.5869 12.872 42.6749 13 42.6269 13.16L42.3629 13.76C42.2189 14.096 42.0429 14.504 41.8349 14.984C41.6429 15.448 41.4589 15.96 41.2829 16.52C41.1869 16.824 41.1069 17.112 41.0429 17.384C40.9789 17.64 40.9469 17.88 40.9469 18.104C40.9469 18.392 41.0509 18.536 41.2589 18.536C41.4669 18.536 41.6829 18.456 41.9069 18.296C42.1309 18.12 42.4029 17.84 42.7229 17.456C42.8989 17.28 43.0589 17.072 43.2029 16.832C43.3629 16.576 43.5069 16.312 43.6349 16.04L43.6589 15.968L43.7069 15.848L43.7549 15.776C43.7389 15.744 43.7309 15.72 43.7309 15.704C43.7469 15.688 43.7549 15.664 43.7549 15.632V15.584C43.7549 15.584 43.7709 15.568 43.8029 15.536C43.9469 15.168 44.0989 14.768 44.2589 14.336C44.4349 13.888 44.6109 13.48 44.7869 13.112L45.2909 11.936L45.3389 11.864ZM58.5567 6.824C58.7967 6.84 58.9567 6.912 59.0367 7.04C59.1327 7.168 59.1567 7.312 59.1087 7.472C59.0607 7.616 58.9567 7.768 58.7967 7.928C58.6527 8.088 58.4607 8.2 58.2207 8.264C58.1087 8.248 57.9887 8.24 57.8607 8.24C57.7487 8.24 57.6287 8.24 57.5007 8.24C56.9247 8.24 56.2847 8.272 55.5807 8.336C54.8767 8.384 54.1487 8.456 53.3967 8.552C52.8367 9.912 52.3167 11.232 51.8367 12.512C51.3567 13.776 50.9007 15.12 50.4687 16.544C50.3087 17.024 50.1807 17.464 50.0847 17.864C49.9887 18.248 49.9727 18.472 50.0367 18.536C50.1327 18.52 50.3007 18.416 50.5407 18.224C50.7807 18.032 51.0767 17.768 51.4287 17.432H51.4047C51.6287 17.208 51.8287 16.96 52.0047 16.688C52.1807 16.416 52.3487 16.152 52.5087 15.896C52.6687 15.688 52.8527 15.56 53.0607 15.512C53.2847 15.448 53.4767 15.448 53.6367 15.512C53.8127 15.56 53.9327 15.672 53.9967 15.848C54.0607 16.024 54.0127 16.24 53.8527 16.496V16.472L53.6847 16.736C53.5087 17.008 53.3167 17.296 53.1087 17.6C52.9167 17.888 52.7567 18.096 52.6287 18.224V18.2C52.0687 18.856 51.5167 19.384 50.9727 19.784C50.4447 20.168 49.9727 20.368 49.5567 20.384C48.8527 20.4 48.3567 20.2 48.0687 19.784C47.7807 19.368 47.6367 18.848 47.6367 18.224C47.6367 17.92 47.6687 17.6 47.7327 17.264C47.7967 16.912 47.8847 16.552 47.9967 16.184C48.3967 14.808 48.8047 13.592 49.2207 12.536C49.6367 11.48 50.0607 10.432 50.4927 9.392L50.6847 8.96H50.5887C50.2527 9.008 50.0047 8.976 49.8447 8.864C49.6847 8.752 49.6047 8.616 49.6047 8.456C49.6047 8.28 49.6767 8.112 49.8207 7.952C49.9647 7.776 50.1727 7.648 50.4447 7.568L51.3327 7.376L52.5567 4.352C52.6847 4.176 52.9007 4.048 53.2047 3.968C53.5247 3.872 53.8287 3.824 54.1167 3.824C54.4687 3.824 54.7487 3.896 54.9567 4.04C55.1647 4.168 55.2047 4.368 55.0767 4.64L55.1007 4.616C54.9887 4.872 54.8847 5.096 54.7887 5.288C54.7087 5.48 54.6287 5.664 54.5487 5.84C54.4847 6 54.4127 6.168 54.3327 6.344C54.2687 6.52 54.1887 6.728 54.0927 6.968C54.6527 6.904 55.1967 6.856 55.7247 6.824C56.2687 6.776 56.7807 6.752 57.2607 6.752C57.7567 6.752 58.1887 6.776 58.5567 6.824ZM64.4873 11.864C64.5833 11.72 64.7833 11.624 65.0873 11.576C65.3913 11.512 65.6953 11.496 65.9993 11.528C66.3193 11.544 66.5833 11.6 66.7913 11.696C67.0153 11.776 67.1033 11.896 67.0553 12.056C66.9753 12.296 66.8633 12.576 66.7193 12.896C66.5913 13.216 66.4553 13.544 66.3113 13.88C66.0873 14.392 65.8713 14.888 65.6633 15.368C65.4713 15.848 65.3353 16.24 65.2553 16.544C65.0953 17.024 64.9673 17.456 64.8713 17.84C64.7753 18.224 64.7513 18.456 64.7993 18.536C64.8953 18.52 65.0633 18.416 65.3033 18.224C65.5433 18.032 65.8233 17.768 66.1433 17.432C66.3833 17.224 66.5993 16.968 66.7913 16.664C66.9993 16.36 67.1833 16.072 67.3433 15.8C67.5033 15.608 67.6873 15.488 67.8953 15.44C68.1193 15.376 68.3113 15.384 68.4713 15.464C68.6473 15.528 68.7593 15.656 68.8073 15.848C68.8553 16.024 68.7993 16.24 68.6393 16.496C68.4793 16.72 68.2873 16.992 68.0633 17.312C67.8553 17.632 67.6393 17.928 67.4153 18.2C66.8233 18.856 66.2553 19.384 65.7113 19.784C65.1833 20.168 64.7113 20.368 64.2953 20.384C63.7513 20.416 63.3353 20.32 63.0473 20.096C62.7753 19.888 62.5833 19.6 62.4713 19.232L62.3273 19.448V19.184C61.9433 19.568 61.5433 19.864 61.1273 20.072C60.7273 20.28 60.3113 20.384 59.8793 20.384C59.4313 20.384 59.0633 20.328 58.7753 20.216C58.4873 20.12 58.2553 19.976 58.0793 19.784C57.9033 19.592 57.7753 19.368 57.6953 19.112C57.6313 18.84 57.5993 18.544 57.5993 18.224C57.5993 17.888 57.6313 17.552 57.6953 17.216C57.7593 16.864 57.8313 16.52 57.9113 16.184C57.9753 15.912 58.0633 15.624 58.1753 15.32C58.3033 15 58.4233 14.696 58.5353 14.408C58.6633 14.12 58.7833 13.856 58.8953 13.616C59.0233 13.36 59.1273 13.152 59.2073 12.992C59.3033 12.832 59.4953 12.72 59.7833 12.656C60.0873 12.592 60.3913 12.576 60.6953 12.608C61.0153 12.624 61.2873 12.68 61.5113 12.776C61.7353 12.872 61.8233 13 61.7753 13.16L61.5113 13.76C61.3673 14.096 61.1913 14.504 60.9833 14.984C60.7913 15.448 60.6073 15.96 60.4313 16.52C60.3353 16.824 60.2553 17.112 60.1913 17.384C60.1273 17.64 60.0953 17.88 60.0953 18.104C60.0953 18.392 60.1993 18.536 60.4073 18.536C60.6153 18.536 60.8313 18.456 61.0553 18.296C61.2793 18.12 61.5513 17.84 61.8713 17.456C62.0473 17.28 62.2073 17.072 62.3513 16.832C62.5113 16.576 62.6553 16.312 62.7833 16.04L62.8073 15.968L62.8553 15.848L62.9033 15.776C62.8873 15.744 62.8793 15.72 62.8793 15.704C62.8953 15.688 62.9033 15.664 62.9033 15.632V15.584C62.9033 15.584 62.9193 15.568 62.9513 15.536C63.0953 15.168 63.2473 14.768 63.4073 14.336C63.5833 13.888 63.7593 13.48 63.9353 13.112L64.4393 11.936L64.4873 11.864ZM69.9051 20.456C68.9451 20.424 68.1851 20.16 67.6251 19.664C67.0811 19.168 66.7931 18.448 66.7611 17.504C66.6971 17.44 66.6491 17.376 66.6171 17.312C66.5851 17.232 66.5851 17.12 66.6171 16.976C66.7291 16.768 66.8331 16.552 66.9291 16.328C67.0091 16.104 67.1051 15.888 67.2171 15.68C67.3291 15.472 67.4651 15.28 67.6251 15.104C67.8011 14.928 68.0251 14.792 68.2971 14.696C68.5691 14.328 68.8171 13.976 69.0411 13.64C69.2811 13.304 69.4811 13.008 69.6411 12.752C69.6411 12.416 69.6971 12.12 69.8091 11.864C69.9211 11.608 70.1051 11.392 70.3611 11.216C70.6171 11.024 70.9531 10.888 71.3691 10.808C71.8011 10.728 72.3451 10.696 73.0011 10.712C72.7611 11.192 72.5931 11.6 72.4971 11.936C72.4171 12.272 72.3771 12.576 72.3771 12.848C72.3771 13.312 72.4331 13.768 72.5451 14.216C72.6731 14.664 72.8171 15.088 72.9771 15.488C73.1531 15.952 73.2891 16.392 73.3851 16.808C73.4971 17.208 73.4971 17.592 73.3851 17.96V17.984C73.3691 18 73.3611 18.024 73.3611 18.056C73.3451 18.12 73.3371 18.152 73.3371 18.152C73.3531 18.152 73.3691 18.144 73.3851 18.128C73.4011 18.096 73.4171 18.064 73.4331 18.032C73.4491 18 73.4571 17.984 73.4571 17.984C73.7931 17.696 74.1291 17.368 74.4651 17C74.8171 16.616 75.1451 16.24 75.4491 15.872C75.5291 15.776 75.6571 15.736 75.8331 15.752C76.0091 15.752 76.1691 15.784 76.3131 15.848C76.4731 15.912 76.6011 16 76.6971 16.112C76.7931 16.208 76.8011 16.312 76.7211 16.424C75.8091 17.752 74.8331 18.768 73.7931 19.472C72.7531 20.16 71.7291 20.504 70.7211 20.504C70.5771 20.504 70.4331 20.504 70.2891 20.504C70.1611 20.504 70.0331 20.488 69.9051 20.456ZM73.3611 18.056C73.4251 17.96 73.4571 17.936 73.4571 17.984L73.3611 18.056ZM69.6651 15.104C69.3931 15.456 69.1451 15.8 68.9211 16.136C68.6971 16.472 68.4411 16.824 68.1531 17.192C68.1211 17.416 68.1451 17.624 68.2251 17.816C68.3051 18.008 68.4171 18.176 68.5611 18.32C68.7051 18.448 68.8731 18.552 69.0651 18.632C69.2571 18.696 69.4491 18.728 69.6411 18.728C69.8811 18.712 70.0811 18.6 70.2411 18.392C70.4011 18.168 70.4731 17.88 70.4571 17.528C70.4731 17.368 70.4571 17.16 70.4091 16.904C70.3611 16.648 70.2971 16.376 70.2171 16.088C70.1211 15.688 70.0331 15.248 69.9531 14.768L69.6651 15.104Z" fill="#FFC814"/>
</svg>
