<svg width="130" height="37" viewBox="0 0 130 37" fill="none" xmlns="http://www.w3.org/2000/svg">
<path d="M5.524 5.94V12.24H13.984V16.236H5.524V22.896H15.064V27H0.484V1.836H15.064V5.94H5.524ZM30.6602 27L26.5562 20.808L22.9202 27H17.5202L24.0362 16.992L17.4482 7.056H23.1362L27.2042 13.212L30.8762 7.056H36.2762L29.7242 16.992L36.3482 27H30.6602ZM44.1256 9.936C44.7736 9.024 45.6616 8.268 46.7896 7.668C47.9416 7.044 49.2496 6.732 50.7136 6.732C52.4176 6.732 53.9536 7.152 55.3216 7.992C56.7136 8.832 57.8056 10.032 58.5976 11.592C59.4136 13.128 59.8216 14.916 59.8216 16.956C59.8216 18.996 59.4136 20.808 58.5976 22.392C57.8056 23.952 56.7136 25.164 55.3216 26.028C53.9536 26.892 52.4176 27.324 50.7136 27.324C49.2496 27.324 47.9536 27.024 46.8256 26.424C45.7216 25.824 44.8216 25.068 44.1256 24.156V36.504H39.0856V7.056H44.1256V9.936ZM54.6736 16.956C54.6736 15.756 54.4216 14.724 53.9176 13.86C53.4376 12.972 52.7896 12.3 51.9736 11.844C51.1816 11.388 50.3176 11.16 49.3816 11.16C48.4696 11.16 47.6056 11.4 46.7896 11.88C45.9976 12.336 45.3496 13.008 44.8456 13.896C44.3656 14.784 44.1256 15.828 44.1256 17.028C44.1256 18.228 44.3656 19.272 44.8456 20.16C45.3496 21.048 45.9976 21.732 46.7896 22.212C47.6056 22.668 48.4696 22.896 49.3816 22.896C50.3176 22.896 51.1816 22.656 51.9736 22.176C52.7896 21.696 53.4376 21.012 53.9176 20.124C54.4216 19.236 54.6736 18.18 54.6736 16.956ZM68.524 0.36V27H63.484V0.36H68.524ZM82.3595 27.324C80.4395 27.324 78.7115 26.904 77.1755 26.064C75.6395 25.2 74.4275 23.988 73.5395 22.428C72.6755 20.868 72.2435 19.068 72.2435 17.028C72.2435 14.988 72.6875 13.188 73.5755 11.628C74.4875 10.068 75.7235 8.868 77.2835 8.028C78.8435 7.164 80.5835 6.732 82.5035 6.732C84.4235 6.732 86.1635 7.164 87.7235 8.028C89.2835 8.868 90.5075 10.068 91.3955 11.628C92.3075 13.188 92.7635 14.988 92.7635 17.028C92.7635 19.068 92.2955 20.868 91.3595 22.428C90.4475 23.988 89.1995 25.2 87.6155 26.064C86.0555 26.904 84.3035 27.324 82.3595 27.324ZM82.3595 22.932C83.2715 22.932 84.1235 22.716 84.9155 22.284C85.7315 21.828 86.3795 21.156 86.8595 20.268C87.3395 19.38 87.5795 18.3 87.5795 17.028C87.5795 15.132 87.0755 13.68 86.0675 12.672C85.0835 11.64 83.8715 11.124 82.4315 11.124C80.9915 11.124 79.7795 11.64 78.7955 12.672C77.8355 13.68 77.3555 15.132 77.3555 17.028C77.3555 18.924 77.8235 20.388 78.7595 21.42C79.7195 22.428 80.9195 22.932 82.3595 22.932ZM101.501 10.152C102.149 9.096 102.989 8.268 104.021 7.668C105.077 7.068 106.277 6.768 107.621 6.768V12.06H106.289C104.705 12.06 103.505 12.432 102.689 13.176C101.897 13.92 101.501 15.216 101.501 17.064V27H96.4606V7.056H101.501V10.152ZM129.555 16.596C129.555 17.316 129.507 17.964 129.411 18.54H114.831C114.951 19.98 115.455 21.108 116.343 21.924C117.231 22.74 118.323 23.148 119.619 23.148C121.491 23.148 122.823 22.344 123.615 20.736H129.051C128.475 22.656 127.371 24.24 125.739 25.488C124.107 26.712 122.103 27.324 119.727 27.324C117.807 27.324 116.079 26.904 114.543 26.064C113.031 25.2 111.843 23.988 110.979 22.428C110.139 20.868 109.719 19.068 109.719 17.028C109.719 14.964 110.139 13.152 110.979 11.592C111.819 10.032 112.995 8.832 114.507 7.992C116.019 7.152 117.759 6.732 119.727 6.732C121.623 6.732 123.315 7.14 124.803 7.956C126.315 8.772 127.479 9.936 128.295 11.448C129.135 12.936 129.555 14.652 129.555 16.596ZM124.335 15.156C124.311 13.86 123.843 12.828 122.931 12.06C122.019 11.268 120.903 10.872 119.583 10.872C118.335 10.872 117.279 11.256 116.415 12.024C115.575 12.768 115.059 13.812 114.867 15.156H124.335Z" fill="white"/>
</svg>
