<svg width="14" height="14" viewBox="0 0 14 14" fill="none" xmlns="http://www.w3.org/2000/svg">
<path d="M12.5 0H1.5C0.6562 0 0 0.6875 0 1.5V12.5C0 13.3438 0.6562 14 1.5 14H12.5C13.3125 14 14 13.3438 14 12.5V1.5C14 0.6875 13.3125 0 12.5 0ZM12.5 12.5H1.5V1.5H12.5V12.5ZM11.375 4.9688C11.5 4.8125 11.5 4.5938 11.375 4.4375L10.6562 3.7188C10.5312 3.5625 10.2812 3.5625 10.125 3.7188L5.7188 8.0938L3.8438 6.2188C3.6875 6.0625 3.4688 6.0625 3.3125 6.2188L2.5938 6.9062C2.4688 7.0625 2.4688 7.3125 2.5938 7.4375L5.4375 10.3125C5.5938 10.4688 5.8125 10.4688 5.9688 10.3125L11.375 4.9688Z" fill="#9DA1B4"/>
</svg>
